<svg width="24" height="24" viewBox="0 0 24 24" fill="none" xmlns="http://www.w3.org/2000/svg">
<path fill-rule="evenodd" clip-rule="evenodd" d="M7 17C7 16.4477 7.52233 16 8.16667 16H19.8333C20.4777 16 21 16.4477 21 17C21 17.5523 20.4777 18 19.8333 18H8.16667C7.52233 18 7 17.5523 7 17Z" fill="#E1C7A5"/>
<path fill-rule="evenodd" clip-rule="evenodd" d="M3 17C3 16.4477 3.44772 16 4 16H4.002C4.55428 16 5.002 16.4477 5.002 17V17.002C5.002 17.5543 4.55428 18.002 4.002 18.002H4C3.44772 18.002 3 17.5543 3 17.002V17Z" fill="#E1C7A5"/>
<path fill-rule="evenodd" clip-rule="evenodd" d="M7 12C7 11.4477 7.52233 11 8.16667 11H19.8333C20.4777 11 21 11.4477 21 12C21 12.5523 20.4777 13 19.8333 13H8.16667C7.52233 13 7 12.5523 7 12Z" fill="#E1C7A5"/>
<path fill-rule="evenodd" clip-rule="evenodd" d="M3 12C3 11.4477 3.44772 11 4 11H4.002C4.55428 11 5.002 11.4477 5.002 12V12.002C5.002 12.5543 4.55428 13.002 4.002 13.002H4C3.44772 13.002 3 12.5543 3 12.002V12Z" fill="#E1C7A5"/>
<path fill-rule="evenodd" clip-rule="evenodd" d="M7 7C7 6.44772 7.52233 6 8.16667 6H19.8333C20.4777 6 21 6.44772 21 7C21 7.55228 20.4777 8 19.8333 8H8.16667C7.52233 8 7 7.55228 7 7Z" fill="#E1C7A5"/>
<path fill-rule="evenodd" clip-rule="evenodd" d="M3 7C3 6.44772 3.44772 6 4 6H4.002C4.55428 6 5.002 6.44772 5.002 7V7.002C5.002 7.55428 4.55428 8.002 4.002 8.002H4C3.44772 8.002 3 7.55428 3 7.002V7Z" fill="#E1C7A5"/>
</svg>
