<svg width="20" height="20" viewBox="0 0 20 20" fill="none" xmlns="http://www.w3.org/2000/svg">
<path fill-rule="evenodd" clip-rule="evenodd" d="M13.3333 16.6667C13.3333 15.7462 14.0795 15 15 15C15.9205 15 16.6666 15.7462 16.6666 16.6667C16.6666 17.5871 15.9205 18.3333 15 18.3333C14.0795 18.3333 13.3333 17.5871 13.3333 16.6667Z" fill="white"/>
<path fill-rule="evenodd" clip-rule="evenodd" d="M5 16.6667C5 15.7462 5.74619 15 6.66667 15C7.58714 15 8.33333 15.7462 8.33333 16.6667C8.33333 17.5871 7.58714 18.3333 6.66667 18.3333C5.74619 18.3333 5 17.5871 5 16.6667Z" fill="white"/>
<path fill-rule="evenodd" clip-rule="evenodd" d="M1.66669 2.49996C1.66669 2.03972 2.03978 1.66663 2.50002 1.66663H3.13978C3.94356 1.66663 4.63283 2.24029 4.77875 3.03071L6.65284 13.182C6.73639 13.6346 6.43723 14.0692 5.98464 14.1528C5.53205 14.2363 5.09742 13.9372 5.01387 13.4846L3.13978 3.33329H2.50002C2.03978 3.33329 1.66669 2.9602 1.66669 2.49996Z" fill="white"/>
<path fill-rule="evenodd" clip-rule="evenodd" d="M3.75 4.99996C3.75 4.53972 4.1231 4.16663 4.58333 4.16663H16.4525C17.5243 4.16663 18.3174 5.1637 18.0764 6.20806L16.538 12.8747C16.3635 13.6309 15.6901 14.1666 14.914 14.1666H5.83333C5.3731 14.1666 5 13.7935 5 13.3333C5 12.8731 5.3731 12.5 5.83333 12.5L14.914 12.5L16.4525 5.83329H4.58333C4.1231 5.83329 3.75 5.4602 3.75 4.99996Z" fill="white"/>
</svg>
