<svg width="20" height="20" viewBox="0 0 20 20" fill="none" xmlns="http://www.w3.org/2000/svg">
<g clip-path="url(#clip0_142_8)">
<path d="M14.0426 0H5.95735C2.67241 0 0 2.67241 0 5.95735V14.0426C0 17.3276 2.67241 20 5.95735 20H14.0426C17.3276 20 20 17.3276 20 14.0426V5.95735C20 2.67241 17.3276 0 14.0426 0ZM17.99 14.0426C17.99 16.2205 16.225 17.99 14.0426 17.99H5.95735C3.77949 17.99 2.00998 16.225 2.00998 14.0426V5.95735C2.00998 3.77949 3.77495 2.00998 5.95735 2.00998H14.0426C16.2205 2.00998 17.99 3.77495 17.99 5.95735V14.0426Z" fill="white"/>
<path d="M9.99999 4.82764C7.14609 4.82764 4.82758 7.14615 4.82758 10.0001C4.82758 12.854 7.14609 15.1725 9.99999 15.1725C12.8539 15.1725 15.1724 12.854 15.1724 10.0001C15.1724 7.14615 12.8539 4.82764 9.99999 4.82764ZM9.99999 13.1625C8.25317 13.1625 6.83756 11.7469 6.83756 10.0001C6.83756 8.25323 8.25317 6.83762 9.99999 6.83762C11.7468 6.83762 13.1624 8.25323 13.1624 10.0001C13.1624 11.7469 11.7468 13.1625 9.99999 13.1625Z" fill="white"/>
<path d="M16.4247 4.86845C16.4247 5.55356 15.8711 6.1071 15.186 6.1071C14.5009 6.1071 13.9474 5.55356 13.9474 4.86845C13.9474 4.18333 14.5009 3.62979 15.186 3.62979C15.8666 3.62525 16.4247 4.18333 16.4247 4.86845Z" fill="white"/>
</g>
<defs>
<clipPath id="clip0_142_8">
<rect width="20" height="20" fill="white"/>
</clipPath>
</defs>
</svg>
