<svg width="202" height="47" viewBox="0 0 202 47" fill="none" xmlns="http://www.w3.org/2000/svg">
<g clip-path="url(#clip0_135_480)">
<path d="M41.6067 13.2203C41.5814 12.7455 41.294 12.5289 41.2687 12.0624H40.5926C40.4658 12.9287 40.9475 13.1453 41.6067 13.2203Z" fill="white"/>
<path d="M39.4093 17.0189C38.7924 17.3521 38.074 17.5771 38.0656 18.5101C38.9361 17.4271 41.1842 17.802 41.7758 18.8433C41.5222 17.9519 40.2629 16.844 39.9249 17.5104C39.6291 17.4854 40.1362 16.9606 39.4093 17.0189Z" fill="white"/>
<path d="M41.7927 22.1837C42.173 21.259 42.6209 19.3847 40.7531 19.1931V19.8595C39.6037 20.1678 37.119 19.3514 36.0372 20.3677C36.1893 20.2094 36.426 21.4257 36.0795 21.2257C36.5696 21.5589 37.3725 21.2257 37.8881 21.534C38.8854 22.0838 38.2938 23.5832 40.077 23.5249C40.1531 23.2084 40.5588 23.225 40.4066 22.7002C40.2122 22.6752 39.9249 22.7252 39.8911 22.5336C40.5841 22.267 40.9137 21.8338 41.7927 22.1837Z" fill="white"/>
<path d="M54.5798 22.6836C50.4301 24.308 45.7564 26.0741 41.0827 26.6655C41.1842 28.0567 42.435 28.3233 42.9336 29.3229C42.866 28.8564 42.9928 28.3816 43.2717 27.9984C47.3706 26.6155 50.8442 24.6162 54.7235 23.0168C54.7657 22.8086 55.0024 22.6753 54.5798 22.6836Z" fill="white"/>
<path d="M45.6465 13.0537C45.6127 13.2453 45.4606 13.3119 45.3085 13.3869C45.2578 13.087 45.824 12.329 45.4775 12.7288C45.1817 12.8788 45.1986 13.3369 44.8014 13.3869C44.8775 13.112 45.5874 12.6372 45.1395 12.3873C45.1733 12.7621 44.5648 13.3536 44.4633 13.0537C46.2212 10.2547 42.4265 14.5865 40.5925 13.3869C40.8545 13.7951 40.0178 13.8951 40.077 13.5535C40.7193 13.3536 40.077 12.4039 39.908 12.229C39.646 12.5289 39.6291 13.0537 38.9022 12.8871C39.0459 12.5955 39.46 12.3789 38.9022 12.229C38.4374 12.4872 38.7755 12.3956 37.55 12.5622C37.6092 13.1537 37.8205 13.3536 38.0655 13.3869C37.6514 13.8118 37.5077 14.4949 36.7133 14.5448C36.6203 13.995 36.3921 13.4869 36.0372 13.0537C35.5216 12.9287 35.716 13.5119 35.192 13.3869C34.7526 13.1537 33.9666 12.3956 33.6792 12.5622C34.0173 13.0704 34.9131 13.0037 35.023 13.7201C34.3976 14.0034 34.1948 13.8534 33.6792 14.0533C34.1187 14.0034 34.2286 14.2866 34.1948 14.7198C33.7806 14.7198 33.6792 14.4615 33.3581 14.3866C34.5075 15.2446 35.7836 15.9777 36.3921 17.3772C37.5923 17.1273 38.6994 16.5525 39.5868 15.7194C39.8066 14.9614 39.1642 14.0034 39.7558 13.8951C40.7954 15.5362 43.1534 15.2946 42.7899 18.0436C43.5506 17.4605 43.9647 16.5358 44.4718 15.7194C43.8633 15.3279 42.6378 16.2276 42.7899 14.8947C43.99 15.2696 45.8663 14.0617 45.6465 13.0537ZM24.7629 16.7024C24.5262 16.1943 23.9853 16.036 23.7572 15.5445H23.9262C23.9769 15.2029 23.436 15.5778 23.4106 15.7111C23.7825 16.2609 26.3433 17.6937 24.7629 16.7024Z" fill="white"/>
<path d="M23.9177 15.5444C23.9177 15.7444 24.1628 15.6444 23.9177 15.5444V15.5444ZM24.0868 16.8773C23.2501 16.5357 23.5712 15.5778 22.7345 16.0526C23.0134 16.2275 22.1514 16.6857 22.0584 17.0522C21.6866 16.3691 21.7119 17.1105 22.2274 17.2188C22.5317 16.3608 23.1064 16.9189 23.0641 16.2192C23.2923 16.4524 23.7487 17.2938 24.0868 16.8773ZM26.7828 14.3782C26.4025 14.3032 25.9377 13.4535 25.608 13.87C25.9208 13.9117 25.5151 14.1449 25.7771 14.2032C25.9968 13.6284 26.6138 14.9113 26.7828 14.3782ZM32.851 14.5448C32.3692 14.5448 31.972 13.6618 31.6762 14.0366C32.0565 14.1116 32.3777 15.1029 32.851 14.5448ZM26.4447 15.0446C25.9292 14.878 25.4052 13.87 24.9319 14.2199C25.4052 14.4032 26.1236 15.2445 26.4447 15.0446ZM25.5996 15.3778C25.1601 15.0863 24.7629 14.6531 24.7629 14.3865C24.7629 14.6031 24.4671 14.5365 24.4248 14.7197C24.6615 14.978 25.8785 15.7027 25.5996 15.3778ZM32.5129 15.5444C32.2763 15.1612 31.4311 14.5198 31.1607 14.7197C31.2959 15.1446 31.9974 15.003 31.9974 15.5444C31.2367 15.6861 31.0001 14.4365 30.4846 14.878C30.7804 14.9197 30.8649 15.1612 30.8226 15.5444C31.6002 15.6027 31.7945 15.7444 32.5129 15.5444ZM25.27 16.0443C24.7798 15.9026 24.3403 14.8697 23.9177 15.2195C24.3488 15.4111 24.9404 16.3025 25.27 16.0443ZM31.1607 16.0443C30.6029 15.8776 30.3747 15.3778 29.8084 15.2195C29.9859 15.6611 30.8311 16.3108 31.1607 16.0443ZM29.1408 16.2109C29.6056 16.2442 30.062 16.3608 30.493 16.5441C30.4339 15.936 29.4197 15.3945 29.1408 15.5194C29.6479 15.6527 28.9802 15.8943 29.1408 16.2109ZM1.34379 35.7956C0.828247 35.654 0.701475 35.9372 0.50709 36.1288C0.498639 35.9455 0.557799 35.7623 0.67612 35.6206C-0.0591605 35.8706 0.253545 36.1705 0 36.9535C0.701475 36.9202 0.828247 37.4617 1.51282 37.4617C1.7072 36.437 3.41441 36.0205 3.19467 35.1375C2.40868 34.7376 1.08179 34.9875 1.34379 35.7956ZM19.7596 7.52228C19.8103 7.4723 19.861 7.42231 19.9117 7.37233L19.7596 7.52228ZM38.8346 10.9711C38.9783 9.7215 35.8935 8.75517 34.7526 8.53025C32.9693 8.18038 31.6002 7.32235 29.8676 7.08077C27.6702 6.78087 21.9063 5.54798 19.9202 7.364C20.8668 6.39768 24.4586 7.45564 25.9377 7.51395C27.1124 7.5556 31.0593 7.34734 31.1269 8.79683C32.4707 8.81349 33.806 9.0634 35.0653 9.54656C36.2907 10.0297 37.5331 10.7211 38.8346 10.9711Z" fill="white"/>
<path d="M48.5877 27.4403C46.7959 36.0206 39.5615 42.4516 30.7296 43.3347C30.6705 41.7852 30.7212 40.2358 30.8818 38.6863C31.1607 37.4118 31.4396 36.2372 32.6735 35.9623C34.4821 35.5707 36.7218 37.5367 39.2403 36.4704C40.694 35.5208 40.5672 33.0217 42.6124 32.6551C43.0435 30.4809 40.4404 31.3056 39.7474 30.6642C41.0236 30.5642 42.0039 30.7724 42.6124 31.3306C43.128 31.0307 43.3731 29.9227 42.7815 29.5062C41.5898 29.9394 41.2264 29.3563 40.2545 29.173C40.1277 29.5479 39.7897 29.5479 39.215 29.8394C39.6122 29.1397 39.4178 29.2563 38.8853 28.8398C39.3671 28.6815 38.9952 28.29 39.215 28.1734C39.215 28.2733 39.2403 28.3733 39.384 28.34C39.3079 27.9318 38.9107 27.6652 38.4966 27.7402C38.3191 27.7735 38.1585 27.8651 38.0402 28.0068C37.8289 27.4736 38.5557 27.8818 38.3783 27.3403C37.8627 27.1904 38.1501 27.8901 37.7021 27.8485C36.9246 27.3903 35.8428 27.7735 36.0203 26.6906C35.9696 27.0821 35.3949 26.6906 35.3442 26.524C35.809 26.0824 35.1498 26.1574 35.1751 25.6992C35.3949 25.6992 35.4118 25.9158 35.6907 25.8659C35.6653 25.6326 35.7245 25.3994 35.8597 25.2078C35.5301 25.1578 35.5301 25.4327 35.3442 25.541C35.5301 24.9079 35.7921 25.0328 35.1751 24.7163C35.378 24.5247 35.5554 24.2997 35.6907 24.0498C34.8117 23.9749 35.0822 22.767 34.5159 22.3921C34.9638 21.5674 35.5893 21.4757 35.8597 20.9009C35.716 21.2008 35.1836 19.9929 36.0287 20.0762C35.1329 19.8097 35.9442 18.3602 36.1978 17.7521C35.9611 17.1606 35.7583 16.5275 35.1582 16.2609C34.6765 16.3859 33.899 16.7691 33.6454 16.5941C33.6116 16.8274 33.6708 17.069 33.8144 17.2606C33.713 17.2106 33.1637 16.8524 33.1468 17.2606C33.5524 17.7687 33.8905 18.3269 34.1525 18.9183C33.1468 18.027 32.9608 17.1356 31.9636 16.9274C32.0312 17.2772 32.141 17.6104 32.3016 17.927C32.0058 17.4189 31.7861 18.3852 31.6255 17.927C32.1157 18.0186 31.372 17.2856 31.4565 17.7604C32.0565 18.1519 30.6705 17.9687 30.6198 18.2685C30.7127 18.2685 30.8142 18.4018 30.6198 18.4352C30.3324 18.1103 30.231 17.6104 29.7831 17.4355C29.8676 18.0103 30.0451 18.5684 30.2986 19.0933C29.9437 18.885 29.6479 18.6351 29.2844 18.4268C29.1239 18.7351 29.8 18.9766 29.2844 19.0933C29.2506 18.9183 29.0055 18.6934 28.9464 18.9266C29.1408 18.96 29.1323 19.1849 29.1154 19.4348C28.0759 19.4681 27.9406 19.7347 27.2645 20.1012C27.1378 19.6764 27.0955 19.1599 26.749 18.9433C26.3011 19.4515 26.7912 20.0096 26.918 20.4344C26.1996 20.2678 25.5573 20.2845 25.4052 19.9263C23.5966 19.7514 23.0641 21.709 22.2021 21.9173C22.5232 20.9509 23.1064 20.0929 23.8924 19.4265C22.8528 18.96 23.0726 18.7934 22.3796 18.4268C22.5655 18.4352 22.7514 18.3768 22.8951 18.2602C23.1825 18.6268 24.4502 18.8767 23.7403 19.2599C24.1797 19.6681 24.5685 19.0933 25.2531 19.2599C25.3038 18.935 25.0249 18.935 24.915 18.7517C26.0137 19.6181 26.2757 17.9603 27.611 18.0936C27.611 17.4188 28.321 17.4605 28.4477 16.9274C28.2703 17.5105 29.014 17.069 29.1239 16.9274C28.6337 16.6858 27.4167 15.8694 27.273 15.7694C27.4336 16.2776 28.0928 16.2776 28.1097 16.9274C27.8308 17.2689 27.3152 17.3605 26.9349 17.5938C26.9349 16.9773 26.3011 16.3776 26.4194 16.6025C26.4194 16.7857 26.6645 16.8607 26.4194 16.9357C26.318 16.7941 25.5151 16.4275 25.9038 16.7691C26.1574 17.019 26.6138 17.069 26.7405 17.4355C26.318 17.6104 26.1489 16.7191 25.9038 17.2689C26.1067 17.5438 26.4109 17.7271 26.7405 17.7771C26.6729 17.977 26.5631 18.1519 26.4025 18.2852C26.1996 18.2186 26.0222 18.1019 25.8869 17.952C26.1996 17.6604 25.8447 17.4438 25.5489 17.2939V17.5438C25.0587 17.9103 25.8109 17.3355 25.7179 17.7104C25.5489 17.7104 25.5151 17.8437 25.3798 17.877C24.7967 17.827 25.3798 17.4272 25.0418 17.3689C24.8305 17.802 24.2389 17.4438 24.2051 17.7021C24.4502 18.0103 25.0756 17.9437 25.0418 18.5268C24.4417 18.0186 23.529 17.802 23.1909 17.0357C23.4191 17.0357 23.7064 17.7104 23.867 17.2023C23.5374 16.9357 23.081 16.8774 22.6923 17.0357C23.0557 17.7854 24.7713 18.0603 24.5431 18.86C23.9684 18.8933 24.5431 18.3019 23.867 18.2019C23.5628 18.6434 24.6108 18.5268 24.0361 18.7101C23.2754 18.4102 22.7937 17.8354 22.1852 17.3855C21.9654 17.802 22.8528 17.8937 22.3542 18.052C22.3035 17.7021 21.9063 18.2935 21.6781 17.8854C21.1625 18.9516 19.1257 19.6431 18.9821 19.7097C18.4665 19.9763 16.1593 23.7166 15.948 21.5341C15.7958 19.9596 18.5426 18.1436 19.6582 17.3772C19.4553 17.3106 19.2779 17.2023 19.1426 17.044C20.3428 16.8107 20.4526 15.7778 21.6696 15.0447C21.5429 15.0114 21.3316 15.0447 21.3316 14.8781C21.7542 14.8781 21.8471 14.5699 22.1683 14.8781C22.219 14.5532 21.9401 14.5532 21.8302 14.3699C22.7092 14.4449 22.3458 13.6369 23.343 13.2037C22.8951 12.9121 23.1825 12.5456 22.6669 12.5456C22.9289 12.2124 23.6304 12.6705 23.1825 13.0537C23.6135 13.1787 23.9684 12.4206 23.698 12.3873C23.2839 12.7788 22.7683 11.8791 22.3458 11.7209C22.1936 12.229 22.9036 11.9458 22.8613 12.3873C22.4894 12.5372 22.0838 12.5956 21.6865 12.5539C21.8725 12.6705 22.557 13.1037 22.2021 13.212C22.2021 12.9204 21.078 12.4206 21.526 12.7039C22.3373 13.3869 21.526 13.7868 21.526 12.8705C20.9682 13.3786 20.7907 12.3623 20.5202 12.7039C20.8667 12.7538 20.8583 13.1454 21.0358 13.362C20.2498 12.8871 20.9344 13.9951 20.3597 14.0284C20.8752 13.7285 19.8103 13.4536 19.8441 13.6952C20.3258 14.4616 19.4046 13.4203 19.3286 13.8618C19.6075 14.0284 19.7173 14.3033 19.4976 14.5199C19.261 14.4866 19.2187 14.245 18.9821 14.1867C18.5426 14.7948 18.0355 15.3529 17.4692 15.8527C17.8665 13.0121 20.4526 12.2707 20.5033 9.3717C20.1146 9.46334 19.7089 9.46334 19.3286 9.3717C19.4131 10.2047 18.2468 9.13012 18.813 9.87986C18.3313 10.0215 18.3736 9.64661 17.9679 9.71325C17.9087 9.99648 18.213 10.1381 17.9679 10.2214C17.7059 9.93817 17.3425 9.76323 16.9622 9.71325C15.9226 10.0131 16.7171 11.3127 16.1255 11.8708H15.4493C15.1789 13.0037 14.2746 13.9617 14.4352 15.028C14.4859 15.3279 14.9253 15.5612 14.9507 15.8527C14.9507 15.936 14.5366 16.036 14.6126 16.3609L14.6464 16.5025L14.6126 16.5275C14.2746 16.7857 14.7394 17.3272 15.1282 17.6521V18.027C14.7479 17.6521 14.2915 18.027 13.9534 18.1936C13.5646 17.7187 14.4352 16.3776 13.6154 16.036C13.6154 16.2276 13.6492 16.5108 13.4463 16.5442C13.4294 16.4525 13.3449 16.3942 13.2519 16.4109C13.1843 16.4192 13.1252 16.4775 13.1167 16.5442C14.0717 17.2772 13.4041 19.793 12.111 19.868C12.4829 20.5178 11.5954 20.8926 11.2743 20.8676C11.7645 21.9173 10.7249 21.809 10.4376 22.0256C12.1786 22.4421 11.4264 24.583 10.6066 25.5076C10.0911 24.6413 9.92205 25.6743 9.56709 24.8495C9.56709 25.2994 9.28819 25.1828 9.56709 25.5076C9.33045 25.4493 9.28819 25.3077 9.05155 25.5076C9.00084 25.8325 9.27974 25.8325 9.38961 26.0158C8.93323 26.0158 9.05155 25.7409 8.71349 26.0158C8.63742 26.6989 9.16142 25.8575 9.22903 26.524C8.96703 26.9988 8.44304 26.1741 8.18949 26.6906C8.34162 26.7405 8.92478 27.1404 8.52755 27.1987C8.13033 27.257 8.15569 26.8988 7.69086 27.0321C10.0235 27.8818 7.97821 29.6562 7.85989 31.014C7.62324 30.5475 7.27673 30.1477 6.84571 29.8561C6.70203 30.3643 6.42313 29.6395 6.00901 29.8561C6.00901 30.4642 5.14695 30.4892 5.83998 30.8474C5.50192 31.1223 5.62869 30.8474 5.16386 30.8474C4.96947 31.3556 5.42585 31.2556 5.50192 31.5139C4.98638 31.6138 4.98638 31.2056 4.66522 31.5139C5.11315 32.2219 4.27645 31.8054 4.14968 32.3386C4.70748 32.3386 4.8427 32.7551 5.15541 32.9967C4.74128 33.1466 4.63986 34.0713 4.14968 33.6631C4.27645 34.0879 3.49046 34.4295 3.98065 34.6544C6.91332 30.2393 15.4662 31.3556 16.4382 25.0162C16.6579 26.2657 17.4777 26.9155 17.1143 28.34C16.2776 28.5149 16.0071 29.248 16.1001 30.3393C15.7705 30.2893 15.7705 30.5642 15.5846 30.6725C15.5508 30.4309 15.6437 30.056 15.4155 30.0061C15.3817 30.6392 15.1113 30.7641 15.0775 31.0307C14.9084 31.0307 14.8746 30.8974 14.7394 30.8641C12.0518 32.9967 15.6353 34.8044 17.2664 35.679C17.1396 36.1206 16.9283 36.5287 16.6325 36.8869L16.1846 37.2118C15.9311 37.67 15.5761 38.0615 15.1451 38.3698C14.8155 38.0782 14.5028 37.7866 14.1985 37.4784C12.6941 35.9789 11.4433 34.2462 10.4883 32.3635L10.4122 32.3969C9.33045 32.7801 8.27401 33.2466 7.25983 33.788C13.0153 45.4339 27.273 50.2822 39.0882 44.6009C46.5424 41.0188 51.571 33.863 52.357 25.7242L50.9963 26.3573C50.2526 26.6822 49.4244 27.0654 48.5877 27.4403Z" fill="white"/>
<path d="M6.22876 27.7651H6.33862C5.75547 26.9987 5.9076 25.9075 6.68514 25.3327C6.7781 25.266 6.87107 25.2077 6.97249 25.1577C7.03165 25.0828 7.09926 25.0161 7.17532 24.9578C7.25139 24.7995 7.35281 24.6496 7.47958 24.5246C7.581 24.2997 7.72467 24.1081 7.90215 23.9415L7.97822 23.8832C8.08808 23.6416 8.24866 23.425 8.4515 23.2501C8.51066 17.5271 11.063 12.104 15.4578 8.36368L15.5592 8.28038C23.9769 1.16623 36.6373 2.05758 43.9478 10.2797C44.1506 10.5129 44.3535 10.7462 44.5479 10.9794C44.9028 11.4209 45.2493 11.8708 45.5874 12.3373V12.3623C45.8747 12.7788 46.1367 13.212 46.3903 13.6535C46.5593 13.9534 46.7283 14.2533 46.8805 14.5615C48.1397 17.0773 48.8497 19.818 48.9595 22.617C50.1174 22.2171 51.2668 21.7923 52.4077 21.3591C51.233 8.46364 39.6713 -1.05798 26.58 0.0916145C13.4886 1.24954 3.82853 12.6455 4.99484 25.5493C5.0709 26.3573 5.18077 27.157 5.34135 27.9484C5.62025 27.8234 5.9245 27.7651 6.22876 27.7651Z" fill="white"/>
</g>
<g clip-path="url(#clip1_135_480)">
<path d="M100.492 7.0835C98.3917 7.0835 99.5824 7.26811 98.2474 7.26811C97.6773 7.26811 96.869 7.0835 95.6711 7.0835C95.4329 7.0835 94.5309 7.1261 94.5309 8.02077C94.5309 8.81603 95.2886 9.09295 95.8587 10.648C96.5731 12.5722 96.667 16.2787 96.667 18.061C96.667 21.1497 96.4288 24.3947 95.4113 24.3947C94.5525 24.3947 93.4051 22.1864 93.4051 16.8894V8.96514C93.4051 7.41722 92.835 7.1119 92.1206 7.1119C90.3092 7.1119 91.0237 7.29651 89.7824 7.29651C88.9237 7.29651 88.7866 7.1119 88.0144 7.1119C87.0185 7.1119 86.7587 7.67284 86.7587 8.19118C86.7587 9.07875 87.4299 8.98645 87.8989 10.9178C88.7072 14.2906 88.2309 17.9971 89.0897 23.8905C89.9484 29.784 92.2288 31.0195 93.8525 31.9212C94.0979 32.0633 94.4226 32.1982 94.4226 32.4396C94.0546 33.8952 93.3185 35.2372 92.2721 36.3307C91.2257 37.41 89.4072 38.0703 89.4072 38.9579C89.4072 40.0372 90.2587 39.9875 90.6628 39.9875C91.1391 39.9804 91.6226 39.952 92.0917 39.8952C92.568 39.8526 93.0876 39.8029 93.6144 39.8029C95.1876 39.8029 95.57 39.9875 96.1257 39.9875C98.0814 39.9875 99.8927 30.6005 100.318 27.9733C101.314 21.5899 101.509 11.7912 101.509 8.78763C101.581 7.21131 100.917 7.0835 100.492 7.0835Z" fill="white"/>
<path d="M149.528 8.12016C149.528 7.74383 149.434 7.09058 148.431 7.09058C144.815 7.09058 148.236 7.4172 143.04 7.4172C138.703 7.4172 139.937 7.09058 137.837 7.09058C136.697 7.09058 136.581 7.70832 136.581 8.26217C136.581 8.6811 136.625 9.05743 136.625 9.49766C136.675 10.0586 136.675 10.6196 136.675 11.1876C136.69 12.0823 136.661 12.9769 136.581 13.8645C136.466 14.6598 136.408 15.4621 136.394 16.2645C136.394 17.3438 136.964 17.3864 137.245 17.3864C137.772 17.3864 137.916 16.868 138.154 16.4988C138.342 16.0657 138.775 15.7888 139.251 15.7959C140.153 15.7959 140.247 16.5414 140.247 17.5355V35.1165C140.247 37.1827 140.009 37.5875 139.677 38.404C139.583 38.681 139.15 39.952 140.623 39.952C141.193 39.952 141.77 39.7673 142.961 39.7673C143.423 39.7602 143.884 39.7744 144.339 39.817C144.758 39.888 145.176 39.9306 145.595 39.959C146.028 40.0017 146.41 39.6963 146.453 39.2703C146.461 39.2206 146.461 39.1638 146.453 39.1141C146.381 38.546 146.223 37.9922 145.977 37.4739C145.681 36.3378 145.523 35.1733 145.508 34.0017V18.21C145.508 16.3568 145.883 15.7675 146.648 15.7675C147.096 15.7817 147.507 16.016 147.745 16.3852C148.027 16.8538 148.128 17.3722 148.835 17.3722C149.167 17.3722 149.643 17.1876 149.643 16.3426C149.643 15.1071 149.405 14.4894 149.405 11.3225C149.456 8.87282 149.528 9.9024 149.528 8.12016Z" fill="white"/>
<path d="M166.905 31.3034V12.6219C166.905 9.38402 167.764 8.29764 167.764 7.55208C167.764 7.03374 167.049 7.08344 166.905 7.08344C164.329 7.08344 165.476 7.26805 163.809 7.26805C162.33 7.26805 163.239 7.08344 161.565 7.08344C160.807 7.08344 160.612 7.41007 160.612 7.70119C160.67 8.03491 160.8 8.35444 160.995 8.63846C161.327 9.24201 161.493 9.92366 161.464 10.6124C161.464 12.1603 161.038 13.0834 159.364 15.9662C158.794 16.9461 157.213 19.9496 157.213 18.7355V12.4941C157.177 11.429 157.343 10.3639 157.689 9.34852C157.978 8.73077 158.404 8.22663 158.404 7.70829C158.404 7.36746 158.13 7.09054 157.783 7.08344C157.754 7.08344 157.718 7.08344 157.689 7.09054C157.271 7.11184 156.852 7.16155 156.434 7.23255C155.806 7.29646 155.178 7.31776 154.55 7.28226C153.121 7.28226 153.295 7.09764 152.039 7.09764C151.758 7.09764 151.043 7.04794 151.043 7.71539C151.043 8.38284 151.902 8.23373 151.902 13.2112V31.6372C151.945 33.4975 151.815 35.3579 151.519 37.1969C151.332 37.8573 151.187 38.5318 151.094 39.2135C151.094 39.9164 151.721 39.9661 152.089 39.9661C153.612 39.9661 153.28 39.7815 154.666 39.7815C156.549 39.7815 155.431 39.9661 157.242 39.9661C158.101 39.9661 158.288 39.4975 158.288 39.0785C158.288 38.4608 157.855 37.7649 157.574 36.92C157.256 35.7697 157.112 34.5839 157.148 33.3981C157.148 31.3815 157.956 29.8833 158.866 28.0017C160.872 24.0183 161.298 23.6774 161.485 23.6774C161.673 23.6774 161.68 23.8692 161.68 24.0041C161.68 24.8916 161.579 24.991 161.579 25.8573V33.3129C161.608 34.733 161.464 36.146 161.153 37.5306C160.93 38.0419 160.756 38.5815 160.634 39.1283C160.605 39.5685 160.937 39.9519 161.384 39.9803C161.435 39.9874 161.493 39.9803 161.543 39.9732C162.366 39.8667 163.196 39.8028 164.026 39.7886C164.596 39.7886 165.216 39.8383 165.794 39.8809C166.14 39.9377 166.494 39.9661 166.84 39.9732C167.078 39.9732 167.793 39.9732 167.793 39.32C167.684 38.5673 167.489 37.8288 167.222 37.1117C167.143 36.501 166.905 35.1874 166.905 31.3034Z" fill="white"/>
<path d="M185.79 8.21248C185.855 7.65864 185.444 7.1545 184.881 7.0906C184.838 7.0835 184.787 7.0835 184.744 7.0835C183.842 7.0835 183.077 7.26811 181.742 7.26811C181.41 7.27521 181.078 7.26101 180.746 7.21841C180.284 7.1616 179.822 7.1332 179.361 7.1261C178.415 7.1261 178.314 7.74385 178.314 8.06337C178.314 8.3829 178.552 8.71662 178.834 9.29887C179.238 10.016 179.454 10.8184 179.462 11.6421C179.462 13.4243 178.509 13.8503 177.989 13.8503C177.47 13.8503 176.366 13.6586 176.366 11.8338C176.373 11.0953 176.517 10.364 176.792 9.6681C177.095 9.13556 177.289 8.53911 177.362 7.92846C177.362 7.55213 177.167 7.0835 176.409 7.0835C175.976 7.0835 175.5 7.22551 173.898 7.22551C171.704 7.22551 171.754 7.0835 170.888 7.0835C169.842 7.0835 169.799 7.78645 169.799 8.16278C169.799 10.087 170.795 10.3711 170.795 14.3048V32.5603C170.823 34.0727 170.665 35.5851 170.318 37.062C170.087 38.1839 169.842 38.61 169.842 38.9863C169.842 39.8313 170.412 39.8739 170.65 39.8739C171.415 39.8739 171.415 39.6893 173.277 39.6893C174.655 39.6893 175.045 39.8313 175.788 39.8313C176.07 39.8313 177.044 39.9307 177.044 38.9437C177.044 38.2407 176.099 37.2041 176.099 30.2171C176.099 23.4645 176.38 21.5686 177.91 21.5686C179.44 21.5686 179.483 23.4219 179.483 25.6017V32.5461C179.483 36.8135 178.718 36.3875 178.718 38.9721C178.718 39.3484 178.718 39.8597 179.671 39.8597C181.1 39.8597 180.667 39.675 182.298 39.675C184.253 39.675 182.63 39.8597 184.73 39.8597C185.206 39.8597 185.87 39.7177 185.87 38.8798C185.87 38.262 185.538 37.6443 185.206 36.0609C184.845 34.1721 184.679 32.255 184.73 30.3378V17.3438C184.65 10.0444 185.79 9.48348 185.79 8.21248Z" fill="white"/>
<path d="M80.6536 19.2396C79.766 19.2112 78.8855 19.3887 78.0773 19.7508C77.7959 19.9284 77.4928 20.0704 77.1752 20.1698C76.8433 20.1698 76.8433 19.5165 76.8433 19.3248V16.9319C76.8433 15.0006 77.3701 13.6941 79.5639 13.6941C80.4587 13.6941 81.3031 14.0704 81.902 14.7237C82.4721 15.3414 82.4216 16.1296 83.3309 16.1296C84.2402 16.1296 84.0453 15.242 84.0453 14.2763C84.0453 13.3106 83.9515 13.4314 83.9515 11.2302C83.9515 9.54025 84.0453 9.16392 84.0453 8.17694C84.0453 7.75801 83.9515 7.09766 83.0928 7.09766C82.566 7.09766 82.566 7.23967 81.3247 7.28227C80.8989 7.28227 78.5103 7.33197 77.9835 7.33197C72.7371 7.33197 73.2639 7.14026 71.7412 7.14026C71.4598 7.14026 70.8392 7.23257 70.8392 7.79351C70.8392 8.35445 71.0773 8.82309 71.2649 10.0941C71.4381 11.5426 71.5247 12.9982 71.5103 14.4538V32.7023C71.5031 34.236 71.3299 35.7555 70.9835 37.2466C70.7887 38.3401 70.5 38.8513 70.5 39.2277C70.5 39.8809 71.2144 39.9306 71.4526 39.9306C72.0227 39.9306 72.5495 39.8383 73.1196 39.7886C73.899 39.7247 74.6783 39.7105 75.4577 39.7389C78.2288 39.7389 77.4639 39.9235 79.3185 39.9235C84.3773 39.9235 85.3732 36.3591 85.3732 33.8739V24.6076C85.3732 19.7082 82.2773 19.2396 80.6536 19.2396ZM80.134 32.894C80.134 33.5117 79.9897 34.9602 78.366 34.9602C77.8897 34.9602 76.7423 34.8679 76.7423 32.61V27.3058C76.7423 25.1473 77.8392 25.1899 78.366 25.1899C78.8855 25.1899 80.134 25.1899 80.134 27.6325V32.894Z" fill="white"/>
<path d="M111.403 30.8277C113.979 30.3591 117.84 28.7615 117.84 19.0905C117.847 10.0018 115.322 7.09058 105.5 7.09058C103.876 7.09058 103.876 7.97815 103.876 8.40418C103.876 9.9024 104.215 10.5698 104.215 16.6621V29.0952C104.215 37.2608 103.501 35.9401 103.501 38.9011C103.487 39.462 103.941 39.9306 104.511 39.9449C104.569 39.9449 104.627 39.9449 104.684 39.9378C105.067 39.9094 105.457 39.8667 105.832 39.7957C106.388 39.7318 106.943 39.7176 107.499 39.746C108.069 39.746 108.646 39.746 109.216 39.7957C109.779 39.8454 110.263 39.9378 110.79 39.9378C111.237 40.0088 111.656 39.7176 111.728 39.2774C111.735 39.2135 111.742 39.1567 111.735 39.0928C111.692 38.5034 111.425 37.9496 110.977 37.5449C109.895 36.0395 109.354 34.2218 109.455 32.3828C109.447 30.9697 109.491 31.1402 111.403 30.8277ZM110.645 15.8172C111.598 15.8172 112.601 17.5071 112.601 20.6455C112.601 24.5082 111.699 25.8502 110.79 25.8502C109.361 25.8502 109.455 22.939 109.455 20.8302C109.455 18.7284 109.31 15.8172 110.645 15.8172Z" fill="white"/>
<path d="M135.023 37.4881C134.864 36.9697 134.626 35.7484 134.46 34.9461C133.601 30.7212 133.745 28.8467 133.081 20.8302C132.028 8.4042 133.031 7.0835 130.693 7.0835C127.64 7.0835 129.596 7.26811 127.07 7.26811C125.598 7.26811 124.782 7.1261 124.061 7.1261C121.578 7.1261 122.682 9.59709 122.105 16.229C120.294 37.9496 119.291 36.7283 119.291 39.0928C119.291 39.8384 119.767 39.9378 120.149 39.9378C120.532 39.9094 120.914 39.8668 121.29 39.7958C121.636 39.7532 121.99 39.739 122.336 39.7461C124.147 39.7461 122.812 39.9307 124.624 39.9307C125.67 39.9307 125.959 39.2277 125.533 38.3827C125.237 37.9141 125.057 37.3887 125.006 36.8348C125.006 36.0822 125.295 34.4845 127.2 34.4845C128.867 34.4845 129.35 35.6064 129.35 36.6431C129.35 38.0987 128.636 37.8786 128.636 38.9437C128.643 39.4833 129.091 39.9165 129.632 39.9236C129.971 39.8952 130.303 39.8526 130.628 39.7816C131.212 39.7177 131.804 39.7035 132.396 39.7319C134.279 39.7319 133.392 39.9165 134.452 39.9165C135.354 39.9165 135.499 39.2987 135.499 39.0289C135.369 38.5106 135.21 37.9993 135.023 37.4881ZM127.431 29.5142C127.359 29.5213 127.279 29.5213 127.207 29.5213C125.684 29.5213 125.872 28.0656 125.872 26.61C125.872 25.5307 126.348 16.8042 127.301 16.8042C128.015 16.8042 128.557 20.5533 128.557 24.0254L128.542 28.1508C128.621 28.8325 128.116 29.4431 127.431 29.5142Z" fill="white"/>
<path d="M195.136 6.71423C188.179 6.71423 188.179 13.7935 188.179 16.6621V32.539C188.179 37.6088 190.755 40.2786 194.948 40.2786C201.227 40.2786 201.429 33.5259 201.429 32.0703V14.3402C201.429 11.7769 200.902 6.71423 195.136 6.71423ZM196.182 16.6195V31.6301C196.182 32.2833 196.139 34.0727 194.753 34.0727C193.498 34.0727 193.426 32.6242 193.426 31.8218V16.8467C193.426 15.8669 193.332 14.2195 194.804 14.2195C196.276 14.2195 196.182 15.8171 196.182 16.6195Z" fill="white"/>
</g>
<defs>
<clipPath id="clip0_135_480">
<rect width="54.8333" height="47" fill="white"/>
</clipPath>
<clipPath id="clip1_135_480">
<rect width="130.929" height="33.5714" fill="white" transform="translate(70.5 6.71423)"/>
</clipPath>
</defs>
</svg>
