<svg width="31" height="24" viewBox="0 0 31 24" fill="none" xmlns="http://www.w3.org/2000/svg">
<g clip-path="url(#clip0_142_59)">
<path d="M30.3891 23.6746V23.7363H30.4469C30.4578 23.7364 30.4685 23.7337 30.4779 23.7284C30.4817 23.7257 30.4848 23.7222 30.4868 23.7181C30.4888 23.714 30.4898 23.7094 30.4896 23.7048C30.4898 23.7003 30.4888 23.6958 30.4868 23.6918C30.4847 23.6878 30.4817 23.6843 30.4779 23.6818C30.4686 23.6762 30.4578 23.6735 30.4469 23.674H30.3891V23.6746ZM30.4476 23.6309C30.4723 23.6294 30.4969 23.6365 30.517 23.651C30.5251 23.6575 30.5315 23.6659 30.5357 23.6754C30.5399 23.6849 30.5419 23.6952 30.5413 23.7056C30.5417 23.7145 30.5402 23.7234 30.5368 23.7317C30.5334 23.7399 30.5283 23.7474 30.5218 23.7535C30.5063 23.767 30.4868 23.775 30.4663 23.7765L30.5438 23.8644H30.4841L30.4128 23.7771H30.3898V23.8644H30.3398V23.6311H30.4483L30.4476 23.6309ZM30.4321 23.945C30.4582 23.9452 30.4842 23.9399 30.5082 23.9295C30.5313 23.9196 30.5523 23.9054 30.5702 23.8877C30.588 23.87 30.6023 23.8491 30.6122 23.826C30.6325 23.7771 30.6325 23.7222 30.6122 23.6733C30.6021 23.6503 30.5879 23.6294 30.5702 23.6116C30.5523 23.5939 30.5313 23.5798 30.5082 23.5698C30.484 23.56 30.4582 23.5551 30.4321 23.5553C30.4055 23.5551 30.3792 23.56 30.3546 23.5698C30.3309 23.5796 30.3094 23.5938 30.2912 23.6116C30.2638 23.6396 30.2452 23.675 30.2379 23.7134C30.2305 23.7518 30.2346 23.7915 30.2498 23.8276C30.2592 23.8507 30.2733 23.8717 30.2912 23.8893C30.3094 23.9071 30.3309 23.9213 30.3546 23.9311C30.3791 23.9415 30.4054 23.9467 30.4321 23.9465M30.4321 23.4992C30.5002 23.4991 30.5656 23.5257 30.6142 23.5732C30.6376 23.596 30.6563 23.6233 30.6691 23.6533C30.6823 23.6841 30.6891 23.7173 30.6891 23.7508C30.6891 23.7844 30.6823 23.8176 30.6691 23.8484C30.656 23.8783 30.6374 23.9054 30.6142 23.9285C30.5904 23.9511 30.5627 23.9694 30.5325 23.9824C30.5007 23.9959 30.4666 24.0027 30.4321 24.0025C30.3972 24.0027 30.3626 23.9959 30.3304 23.9824C30.2998 23.9697 30.2719 23.9514 30.2481 23.9285C30.2249 23.9046 30.2066 23.8765 30.194 23.8458C30.1807 23.8149 30.1739 23.7818 30.1739 23.7482C30.1739 23.7147 30.1807 23.6815 30.194 23.6507C30.2068 23.6206 30.2254 23.5934 30.2489 23.5706C30.2723 23.5473 30.3003 23.5289 30.3312 23.5166C30.3633 23.5031 30.3979 23.4963 30.4328 23.4966M6.69846 22.598C6.69846 22.153 6.99141 21.7874 7.47021 21.7874C7.92777 21.7874 8.23653 22.1372 8.23653 22.598C8.23653 23.0587 7.92777 23.4085 7.47021 23.4085C6.99141 23.4085 6.69846 23.0429 6.69846 22.598ZM8.7581 22.598V21.3316H8.20491V21.6401C8.02945 21.4122 7.76331 21.2692 7.40139 21.2692C6.68839 21.2692 6.12884 21.8257 6.12884 22.5986C6.12884 23.3715 6.68808 23.928 7.40139 23.928C7.76316 23.928 8.02945 23.7849 8.20491 23.557V23.8644H8.75748V22.598H8.7581ZM27.4499 22.598C27.4499 22.153 27.7428 21.7874 28.2218 21.7874C28.6798 21.7874 28.9881 22.1372 28.9881 22.598C28.9881 23.0587 28.6798 23.4085 28.2218 23.4085C27.743 23.4085 27.4499 23.0429 27.4499 22.598ZM29.5101 22.598V20.3152H28.9565V21.6401C28.781 21.4122 28.5149 21.2692 28.1529 21.2692C27.4399 21.2692 26.8804 21.8257 26.8804 22.5986C26.8804 23.3715 27.4396 23.928 28.1529 23.928C28.5149 23.928 28.781 23.7849 28.9565 23.557V23.8644H29.5101V22.598ZM15.624 21.7614C15.9805 21.7614 16.2094 21.9838 16.2679 22.3754H14.9479C15.0069 22.0098 15.23 21.7614 15.6241 21.7614M15.6351 21.2678C14.8896 21.2678 14.368 21.8076 14.368 22.5972C14.368 23.4022 14.9105 23.9266 15.6722 23.9266C16.0553 23.9266 16.4063 23.8314 16.715 23.5718L16.4439 23.1639C16.2307 23.3335 15.9591 23.4287 15.7038 23.4287C15.3473 23.4287 15.0227 23.2644 14.9429 22.8087H16.8319C16.8373 22.7402 16.8429 22.6711 16.8429 22.597C16.8373 21.8078 16.3469 21.2676 15.6348 21.2676M22.3138 22.597C22.3138 22.1521 22.6067 21.7865 23.0855 21.7865C23.5431 21.7865 23.8519 22.1363 23.8519 22.597C23.8519 23.0578 23.5431 23.4076 23.0855 23.4076C22.6067 23.4076 22.3136 23.042 22.3136 22.597M24.3733 22.597V21.3316H23.8204V21.6401C23.6443 21.4122 23.3788 21.2692 23.0169 21.2692C22.3039 21.2692 21.7443 21.8257 21.7443 22.5986C21.7443 23.3715 22.3036 23.928 23.0169 23.928C23.3788 23.928 23.6443 23.7849 23.8204 23.557V23.8644H24.3734V22.598L24.3733 22.597ZM19.1898 22.597C19.1898 23.365 19.727 23.9264 20.5469 23.9264C20.9301 23.9264 21.1854 23.8416 21.4614 23.6246L21.1958 23.1796C20.9881 23.3281 20.77 23.4076 20.5293 23.4076C20.0877 23.4022 19.7629 23.0844 19.7629 22.597C19.7629 22.1096 20.0877 21.792 20.5293 21.7865C20.7694 21.7865 20.9874 21.8659 21.1958 22.0145L21.4614 21.5695C21.1849 21.3525 20.9296 21.2676 20.5469 21.2676C19.727 21.2676 19.1898 21.8289 19.1898 22.597ZM26.3213 21.2676C26.0022 21.2676 25.7943 21.4162 25.6506 21.6386V21.3316H25.1024V23.8631H25.6562V22.444C25.6562 22.0251 25.8371 21.7924 26.1987 21.7924C26.3171 21.7907 26.4347 21.8123 26.5447 21.8561L26.7152 21.3372C26.5927 21.2892 26.4331 21.2681 26.321 21.2681M11.4931 21.5329C11.2269 21.3583 10.8602 21.2681 10.4557 21.2681C9.81117 21.2681 9.39624 21.5755 9.39624 22.0785C9.39624 22.4912 9.70515 22.7459 10.274 22.8253L10.5353 22.8623C10.8387 22.9047 10.9819 22.9842 10.9819 23.1272C10.9819 23.3229 10.7804 23.4346 10.402 23.4346C10.0189 23.4346 9.74235 23.3127 9.55589 23.1697L9.29595 23.599C9.59929 23.8214 9.98245 23.9275 10.3974 23.9275C11.1321 23.9275 11.5579 23.5833 11.5579 23.1013C11.5579 22.6563 11.2228 22.4235 10.6691 22.3441L10.4084 22.3064C10.1689 22.2756 9.97702 22.2276 9.97702 22.058C9.97702 21.8729 10.1579 21.7615 10.4614 21.7615C10.7861 21.7615 11.1005 21.8834 11.2545 21.9785L11.494 21.5335L11.4931 21.5329ZM18.631 21.2686C18.3118 21.2686 18.104 21.4171 17.9609 21.6395V21.3316H17.4127V23.8631H17.9659V22.444C17.9659 22.0251 18.1468 21.7924 18.5084 21.7924C18.6268 21.7907 18.7444 21.8123 18.8543 21.8561L19.0248 21.3372C18.9024 21.2892 18.7427 21.2681 18.6307 21.2681M13.9103 21.3316H13.0057V20.5637H12.4465V21.3316H11.9305V21.8348H12.4465V22.9896C12.4465 23.5769 12.6756 23.9268 13.33 23.9268C13.5701 23.9268 13.8466 23.8527 14.0221 23.731L13.8623 23.2597C13.6972 23.3548 13.5163 23.4028 13.3725 23.4028C13.0959 23.4028 13.0057 23.2331 13.0057 22.9791V21.8352H13.9103V21.3316ZM5.63966 23.8637V22.275C5.63966 21.6767 5.2565 21.2741 4.63882 21.2687C4.3141 21.2633 3.97914 21.3639 3.74463 21.7191C3.56917 21.4384 3.29265 21.2687 2.90391 21.2687C2.63219 21.2687 2.36668 21.3481 2.15882 21.6446V21.3316H1.60516V23.8631H2.16316V22.4595C2.16316 22.02 2.40806 21.7865 2.78626 21.7865C3.15361 21.7865 3.33946 22.0248 3.33946 22.4539V23.8627H3.8987V22.4591C3.8987 22.0197 4.15398 21.7862 4.52118 21.7862C4.89891 21.7862 5.07918 22.0245 5.07918 22.4536V23.8624L5.63966 23.8637Z" fill="white"/>
<path d="M19.6938 17.0306H11.3105V2.03833H19.694L19.6938 17.0306Z" fill="white"/>
<path d="M11.842 9.53452C11.842 6.49334 13.273 3.78424 15.5012 2.03838C13.8145 0.714903 11.7284 -0.00339201 9.5804 -0.00023377C4.28916 -0.00023377 0 4.26856 0 9.53452C0 14.8005 4.28916 19.0693 9.5804 19.0693C11.7284 19.0725 13.8147 18.3542 15.5014 17.0307C13.2733 15.2851 11.842 12.5759 11.842 9.53452Z" fill="white"/>
<path d="M31.0039 9.53477C31.0039 14.8007 26.7147 19.0695 21.4235 19.0695C19.2752 19.0727 17.1888 18.3544 15.5017 17.0309C17.7306 15.285 19.1616 12.5761 19.1616 9.53477C19.1616 6.49343 17.7306 3.78448 15.5017 2.03862C17.1887 0.715187 19.2751 -0.00309251 21.4233 1.00087e-05C26.7146 1.00087e-05 31.0037 4.2688 31.0037 9.53477" fill="white"/>
</g>
<defs>
<clipPath id="clip0_142_59">
<rect width="31" height="24" fill="white"/>
</clipPath>
</defs>
</svg>
