<svg width="46" height="14" viewBox="0 0 46 14" fill="none" xmlns="http://www.w3.org/2000/svg">
<g clip-path="url(#clip0_142_43)">
<path d="M13.6477 0.27686L9.79281 9.43772L8.2314 1.64947C8.16863 1.26666 7.96187 0.917661 7.64865 0.665821C7.33542 0.413981 6.93648 0.275984 6.52422 0.27686H0.220276L0.136047 0.666434C1.39863 0.902517 2.62576 1.28272 3.79013 1.7986C4.33436 2.08164 4.48985 2.32208 4.66802 2.98556L7.62562 13.726H11.5421L17.5448 0.27686H13.6477Z" fill="white"/>
<path d="M19.1321 0.276855L16.0676 13.7351H19.7768L22.8315 0.276855H19.1321Z" fill="white"/>
<path d="M27.6972 4.00516C27.6972 3.52429 28.1993 3.00995 29.2683 2.873C30.5223 2.76591 31.784 2.97608 32.9224 3.48169L33.5703 0.629936C32.4627 0.234676 31.2888 0.0285382 30.1041 0.0212402C26.4403 0.0212402 23.8649 1.84733 23.839 4.4769C23.8196 6.41255 25.6822 7.49298 27.0784 8.12907C28.4746 8.76516 29.0221 9.20951 28.9994 9.80298C28.9994 10.716 27.8462 11.0995 26.7836 11.1147C25.4578 11.1426 24.1464 10.8513 22.9741 10.2686L22.3068 13.2178C23.6204 13.6969 25.0182 13.9395 26.4273 13.933C30.3146 13.933 32.8608 12.1252 32.877 9.3282C32.877 5.77342 27.6486 5.57865 27.6939 3.99299" fill="white"/>
<path d="M38.4262 8.96908L40.3958 3.91387L41.5036 8.96908H38.4262ZM39.8321 0.276909C39.4939 0.274307 39.1627 0.367216 38.8814 0.543585C38.6001 0.719953 38.3817 0.971648 38.2545 1.26604L32.6956 13.7443H36.5829L37.3572 11.7326H42.0997L42.5468 13.7443H45.9838L42.997 0.276909H39.8321Z" fill="white"/>
</g>
<defs>
<clipPath id="clip0_142_43">
<rect width="46" height="14" fill="white"/>
</clipPath>
</defs>
</svg>
