<svg width="24" height="14" viewBox="0 0 24 14" fill="none" xmlns="http://www.w3.org/2000/svg">
<g clip-path="url(#clip0_142_14)">
<path d="M0.229819 2.11792C0.0279974 1.58274 -0.229886 1.02479 0.381186 0.723039C1.62015 0.705959 2.85911 0.688879 4.10368 0.671799C4.64187 0.688879 4.88854 1.09311 5.17446 1.65675C6.00978 3.29075 6.87873 4.91905 7.92709 6.41641C8.26906 6.90604 8.8465 7.09392 9.3006 6.31393C9.35105 5.26066 9.40151 4.20738 9.45196 3.15411C9.28378 1.93003 8.86332 1.20698 8.12891 1.13296C7.70845 0.717346 8.01118 0.375744 8.95301 0.193556C10.4499 -0.130966 11.7561 0.0170612 12.9054 0.165089C13.8752 0.227716 14.0154 0.89384 13.9986 1.65675C13.9649 3.05163 13.9369 4.4522 13.9369 5.84707C14.2228 7.26472 14.9852 6.69539 15.4898 6.0805C16.3924 4.77672 17.1773 3.5071 17.8332 2.07806C18.5115 0.609172 18.6965 0.717346 19.1731 0.711653C20.3111 0.705959 21.5669 0.649025 22.4751 0.683186C24.37 0.569318 24.1513 1.42332 23.6187 2.32857C22.6993 3.90563 21.5164 5.32898 20.4625 6.83203C19.8234 7.7145 19.8346 8.26676 20.5129 8.745C21.5164 9.86659 22.604 10.9142 23.5178 12.1098C24.5101 13.4136 23.7813 13.7722 22.8563 13.869C21.7519 13.869 20.6475 13.869 19.5431 13.869C18.6012 13.8861 17.7491 13.647 17.1492 12.6279C15.7645 10.7661 14.733 10.2537 14.3181 11.3013C14.1387 11.7625 13.9874 12.3831 13.993 12.9866C13.9986 13.8292 13.4996 13.8975 12.8213 13.9203C12.0925 13.9203 11.3356 14.1025 10.6293 13.9203C8.12891 13.2769 5.72947 12.0927 3.3917 8.02194C2.33774 6.26269 1.28378 4.33833 0.229819 2.11792Z" fill="white"/>
</g>
<defs>
<clipPath id="clip0_142_14">
<rect width="24" height="14" fill="white"/>
</clipPath>
</defs>
</svg>
